<svg width="48" height="48" viewBox="0 0 48 48" fill="none" xmlns="http://www.w3.org/2000/svg">
<circle cx="16" cy="24" r="10" fill="#3B82F6"/>
<circle cx="32" cy="24" r="10" fill="#22C55E"/>
<circle cx="24" cy="16" r="10" fill="#F97316"/>
<path d="M18 24C18 22.8954 18.8954 22 20 22C21.1046 22 22 22.8954 22 24C22 25.1046 21.1046 26 20 26C18.8954 26 18 25.1046 18 24Z" fill="white"/>
<path d="M30 24C30 22.8954 30.8954 22 32 22C33.1046 22 34 22.8954 34 24C34 25.1046 33.1046 26 32 26C30.8954 26 30 25.1046 30 24Z" fill="white"/>
<path d="M22 16C22 14.8954 22.8954 14 24 14C25.1046 14 26 14.8954 26 16C26 17.1046 25.1046 18 24 18C22.8954 18 22 17.1046 22 16Z" fill="white"/>
</svg>